<svg width="89" height="150" viewBox="0 0 89 150" fill="none" xmlns="http://www.w3.org/2000/svg">
<path opacity="0.5" d="M74.2351 0.588449C73.6843 -0.030358 72.7361 -0.0854973 72.1173 0.465292C71.4985 1.01608 71.4434 1.96423 71.9942 2.58303L74.2351 0.588449ZM57.4406 73.7267L56.7924 72.374L57.4406 73.7267ZM0.705279 138.483C0.204916 139.144 0.334519 140.084 0.994762 140.585L11.7541 148.739C12.4143 149.239 13.3552 149.11 13.8556 148.449C14.3559 147.789 14.2263 146.848 13.5661 146.348L4.00224 139.1L11.2502 129.536C11.7506 128.876 11.621 127.935 10.9607 127.435C10.3005 126.934 9.35962 127.064 8.85925 127.724L0.705279 138.483ZM71.9942 2.58303C78.5744 9.9759 85.6181 22.3041 85.6194 35.2703C85.62 41.7171 83.8828 48.3425 79.4526 54.6615C75.0142 60.9924 67.8194 67.0907 56.7924 72.374L58.0887 75.0795C69.4628 69.6299 77.108 63.2319 81.9091 56.3837C86.7185 49.5237 88.6201 42.2873 88.6194 35.2699C88.6179 21.3078 81.0976 8.29846 74.2351 0.588449L71.9942 2.58303ZM56.7924 72.374C43.0299 78.9681 32.3392 79.44 24.6996 76.8346C17.0693 74.2325 12.2746 68.4952 10.3632 62.2087C8.44211 55.89 9.45792 49.1231 13.3135 44.4362C17.1178 39.8116 23.9255 36.9328 34.2011 38.8288L34.7454 35.8786C23.6504 33.8314 15.6434 36.8817 10.9967 42.5303C6.40133 48.1165 5.32985 55.9668 7.49293 63.0813C9.66576 70.2279 15.1267 76.7396 23.7313 79.6741C32.3266 82.6054 43.8501 81.9016 58.0887 75.0795L56.7924 72.374ZM34.2011 38.8288C44.3379 40.6991 51.4008 47.12 55.341 55.9543C59.299 64.8283 60.0953 76.1443 57.5396 87.5872C52.434 110.447 34.0438 133.447 1.69606 137.903L2.10546 140.875C35.8605 136.226 55.1272 112.151 60.4674 88.2412C63.1346 76.2992 62.3511 64.3065 58.0808 54.7323C53.7928 45.1183 45.9791 37.9513 34.7454 35.8786L34.2011 38.8288Z" fill="#D26D60"/>
</svg>
